{
    "accessors" : [
        {
            "bufferView" : 0, 
            "componentType" : 5121, 
            "count" : 180, 
            "max" : [
                119
            ], 
            "min" : [
                0
            ], 
            "type" : "SCALAR"
        }, 
        {
            "bufferView" : 1, 
            "componentType" : 5126, 
            "count" : 120, 
            "max" : [
                2.25, 
                2.25, 
                0.412293016910553
            ], 
            "min" : [
                -0.2782133221626282, 
                -0.412293016910553, 
                -2.25
            ], 
            "type" : "VEC3"
        }, 
        {
            "bufferView" : 2, 
            "componentType" : 5126, 
            "count" : 120, 
            "max" : [
                1.0, 
                1.0, 
                1.0
            ], 
            "min" : [
                -1.0, 
                -1.0, 
                -1.0
            ], 
            "type" : "VEC3"
        }, 
        {
            "bufferView" : 3, 
            "componentType" : 5123, 
            "count" : 120, 
            "max" : [
                0, 
                1, 
                0, 
                0
            ], 
            "min" : [
                0, 
                0, 
                0, 
                0
            ], 
            "type" : "VEC4"
        }, 
        {
            "bufferView" : 4, 
            "componentType" : 5126, 
            "count" : 120, 
            "max" : [
                0.9998714923858643, 
                0.9386509656906128, 
                0.0, 
                0.0
            ], 
            "min" : [
                0.0613490492105484, 
                0.0, 
                0.0, 
                0.0
            ], 
            "type" : "VEC4"
        }, 
        {
            "bufferView" : 5, 
            "componentType" : 5126, 
            "count" : 2, 
            "max" : [
                1.0, 
                0.0, 
                0.06516613066196442, 
                0.0, 
                0.0, 
                1.0, 
                0.017607098445296288, 
                0.0, 
                0.0, 
                0.017405854538083076, 
                1.0, 
                0.0, 
                0.007865950465202332, 
                -0.013821691274642944, 
                0.013510615564882755, 
                1.0
            ], 
            "min" : [
                -0.99786776304245, 
                -0.0036545905750244856, 
                0.0, 
                0.0, 
                -0.0025119830388575792, 
                0.9998416304588318, 
                0.0, 
                0.0, 
                -0.0652201697230339, 
                0.0, 
                -0.9977190494537354, 
                0.0, 
                -0.005590024869889021, 
                -1.261101245880127, 
                -0.03605642914772034, 
                1.0
            ], 
            "type" : "MAT4"
        }, 
        {
            "bufferView" : 6, 
            "componentType" : 5126, 
            "count" : 30, 
            "max" : [
                1.2083333333333333
            ], 
            "min" : [
                0.0
            ], 
            "type" : "SCALAR"
        }, 
        {
            "bufferView" : 7, 
            "componentType" : 5126, 
            "count" : 30, 
            "max" : [
                1.0, 
                0.30000001192092896, 
                0.0
            ], 
            "min" : [
                0.0, 
                0.0, 
                -0.6000000238418579
            ], 
            "type" : "VEC3"
        }, 
        {
            "bufferView" : 8, 
            "componentType" : 5126, 
            "count" : 30, 
            "max" : [
                1.2083333333333333
            ], 
            "min" : [
                0.0
            ], 
            "type" : "SCALAR"
        }, 
        {
            "bufferView" : 9, 
            "componentType" : 5126, 
            "count" : 30, 
            "max" : [
                0.0, 
                0.12092238664627075, 
                0.12092239409685135, 
                1.0
            ], 
            "min" : [
                -0.2801409661769867, 
                0.0, 
                0.0, 
                0.9446039795875549
            ], 
            "type" : "VEC4"
        }, 
        {
            "bufferView" : 10, 
            "componentType" : 5126, 
            "count" : 30, 
            "max" : [
                1.2083333333333333
            ], 
            "min" : [
                0.0
            ], 
            "type" : "SCALAR"
        }, 
        {
            "bufferView" : 11, 
            "componentType" : 5126, 
            "count" : 30, 
            "max" : [
                1.0, 
                1.0, 
                1.0
            ], 
            "min" : [
                0.9999999403953552, 
                0.9999999403953552, 
                0.9999999403953552
            ], 
            "type" : "VEC3"
        }, 
        {
            "bufferView" : 12, 
            "componentType" : 5126, 
            "count" : 30, 
            "max" : [
                1.2083333333333333
            ], 
            "min" : [
                0.0
            ], 
            "type" : "SCALAR"
        }, 
        {
            "bufferView" : 13, 
            "componentType" : 5126, 
            "count" : 30, 
            "max" : [
                0.0, 
                1.2477350234985352, 
                0.0
            ], 
            "min" : [
                0.0, 
                1.2477350234985352, 
                0.0
            ], 
            "type" : "VEC3"
        }, 
        {
            "bufferView" : 14, 
            "componentType" : 5126, 
            "count" : 30, 
            "max" : [
                1.2083333333333333
            ], 
            "min" : [
                0.0
            ], 
            "type" : "SCALAR"
        }, 
        {
            "bufferView" : 15, 
            "componentType" : 5126, 
            "count" : 30, 
            "max" : [
                0.011055526323616505, 
                0.9994284510612488, 
                0.3905564248561859, 
                0.03265167027711868
            ], 
            "min" : [
                -0.0015425040619447827, 
                0.9199997782707214, 
                0.008758246898651123, 
                0.030723536387085915
            ], 
            "type" : "VEC4"
        }, 
        {
            "bufferView" : 16, 
            "componentType" : 5126, 
            "count" : 30, 
            "max" : [
                1.2083333333333333
            ], 
            "min" : [
                0.0
            ], 
            "type" : "SCALAR"
        }, 
        {
            "bufferView" : 17, 
            "componentType" : 5126, 
            "count" : 30, 
            "max" : [
                1.0, 
                1.000000238418579, 
                1.0000001192092896
            ], 
            "min" : [
                0.9999998807907104, 
                1.0000001192092896, 
                1.0
            ], 
            "type" : "VEC3"
        }
    ], 
    "animations" : [
        {
            "channels" : [
                {
                    "sampler" : 0, 
                    "target" : {
                        "node" : 2, 
                        "path" : "translation"
                    }
                }, 
                {
                    "sampler" : 1, 
                    "target" : {
                        "node" : 2, 
                        "path" : "rotation"
                    }
                }, 
                {
                    "sampler" : 2, 
                    "target" : {
                        "node" : 2, 
                        "path" : "scale"
                    }
                }, 
                {
                    "sampler" : 3, 
                    "target" : {
                        "node" : 3, 
                        "path" : "translation"
                    }
                }, 
                {
                    "sampler" : 4, 
                    "target" : {
                        "node" : 3, 
                        "path" : "rotation"
                    }
                }, 
                {
                    "sampler" : 5, 
                    "target" : {
                        "node" : 3, 
                        "path" : "scale"
                    }
                }
            ], 
            "samplers" : [
                {
                    "input" : 6, 
                    "interpolation" : "LINEAR", 
                    "output" : 7
                }, 
                {
                    "input" : 8, 
                    "interpolation" : "LINEAR", 
                    "output" : 9
                }, 
                {
                    "input" : 10, 
                    "interpolation" : "LINEAR", 
                    "output" : 11
                }, 
                {
                    "input" : 12, 
                    "interpolation" : "LINEAR", 
                    "output" : 13
                }, 
                {
                    "input" : 14, 
                    "interpolation" : "LINEAR", 
                    "output" : 15
                }, 
                {
                    "input" : 16, 
                    "interpolation" : "LINEAR", 
                    "output" : 17
                }
            ]
        }
    ], 
    "asset" : {
        "generator" : "Khronos Blender glTF 2.0 exporter", 
        "version" : "2.0"
    }, 
    "bufferViews" : [
        {
            "buffer" : 0, 
            "byteLength" : 180, 
            "byteOffset" : 0, 
            "target" : 34963
        }, 
        {
            "buffer" : 0, 
            "byteLength" : 1440, 
            "byteOffset" : 180, 
            "target" : 34962
        }, 
        {
            "buffer" : 0, 
            "byteLength" : 1440, 
            "byteOffset" : 1620, 
            "target" : 34962
        }, 
        {
            "buffer" : 0, 
            "byteLength" : 960, 
            "byteOffset" : 3060, 
            "target" : 34962
        }, 
        {
            "buffer" : 0, 
            "byteLength" : 1920, 
            "byteOffset" : 4020, 
            "target" : 34962
        }, 
        {
            "buffer" : 0, 
            "byteLength" : 128, 
            "byteOffset" : 5940
        }, 
        {
            "buffer" : 0, 
            "byteLength" : 120, 
            "byteOffset" : 6068
        }, 
        {
            "buffer" : 0, 
            "byteLength" : 360, 
            "byteOffset" : 6188
        }, 
        {
            "buffer" : 0, 
            "byteLength" : 120, 
            "byteOffset" : 6548
        }, 
        {
            "buffer" : 0, 
            "byteLength" : 480, 
            "byteOffset" : 6668
        }, 
        {
            "buffer" : 0, 
            "byteLength" : 120, 
            "byteOffset" : 7148
        }, 
        {
            "buffer" : 0, 
            "byteLength" : 360, 
            "byteOffset" : 7268
        }, 
        {
            "buffer" : 0, 
            "byteLength" : 120, 
            "byteOffset" : 7628
        }, 
        {
            "buffer" : 0, 
            "byteLength" : 360, 
            "byteOffset" : 7748
        }, 
        {
            "buffer" : 0, 
            "byteLength" : 120, 
            "byteOffset" : 8108
        }, 
        {
            "buffer" : 0, 
            "byteLength" : 480, 
            "byteOffset" : 8228
        }, 
        {
            "buffer" : 0, 
            "byteLength" : 120, 
            "byteOffset" : 8708
        }, 
        {
            "buffer" : 0, 
            "byteLength" : 360, 
            "byteOffset" : 8828
        }
    ], 
    "buffers" : [
        {
            "byteLength" : 9188, 
            "uri" : "out.bin"
        }
    ], 
    "meshes" : [
        {
            "name" : "Cube.001", 
            "primitives" : [
                {
                    "attributes" : {
                        "JOINTS_0" : 3, 
                        "NORMAL" : 2, 
                        "POSITION" : 1, 
                        "WEIGHTS_0" : 4
                    }, 
                    "indices" : 0
                }
            ]
        }
    ], 
    "nodes" : [
        {
            "children" : [
                1, 
                2
            ], 
            "name" : "Armature", 
            "translation" : [
                0.005590024869889021, 
                0.013821691274642944, 
                -0.013510615564882755
            ]
        }, 
        {
            "mesh" : 0, 
            "name" : "Cube", 
            "skin" : 0, 
            "translation" : [
                -0.005590024869889021, 
                -0.013821691274642944, 
                0.013510615564882755
            ]
        }, 
        {
            "children" : [
                3
            ], 
            "name" : "Armature_Bone"
        }, 
        {
            "name" : "Armature_Bone.001", 
            "rotation" : [
                -0.0015425040619447827, 
                0.9994284510612488, 
                0.008758246898651123, 
                0.032615114003419876
            ], 
            "scale" : [
                0.9999999403953552, 
                1.0000001192092896, 
                1.0
            ], 
            "translation" : [
                0.0, 
                1.2477350234985352, 
                0.0
            ]
        }
    ], 
    "scene" : 0, 
    "scenes" : [
        {
            "name" : "Scene", 
            "nodes" : [
                0
            ]
        }
    ], 
    "skins" : [
        {
            "inverseBindMatrices" : 5, 
            "joints" : [
                2, 
                3
            ], 
            "skeleton" : 0
        }
    ]
}
