# Blender v2.78 (sub 0) OBJ File: 'modular.blend'
# www.blender.org
o WallExteriorCorner-2x2_Cube.004
v 0.000000 0.050000 -1.000000
v -0.000000 2.500000 -1.278251
v -0.000001 2.500000 -1.188493
v -0.000000 2.000000 -1.278251
v 0.000000 0.050000 -0.109299
v -0.000000 0.421266 -1.100582
v -0.000000 1.570471 -1.000001
v -0.000000 2.000000 -1.000001
v -0.000000 0.270734 -1.000000
v 0.000000 0.000000 -0.000000
v -0.000000 2.150021 -1.106986
v -0.000000 2.316688 -1.169817
v -0.000000 1.476791 -1.100582
v -0.000000 2.316688 -1.278251
v 0.053587 2.598871 -1.307211
v 0.053587 2.598871 -1.144033
v 0.053587 0.000000 -1.307211
v 0.053587 2.323394 -1.118225
v 0.053587 2.172848 -1.055856
v 0.053587 2.011548 -0.937570
v 0.053587 0.000000 -0.552602
v -0.053586 2.598871 -1.144033
v -0.053586 2.598871 -1.307211
v -0.053586 0.000000 -1.307211
v -0.053586 2.323394 -1.118225
v -0.053586 2.172848 -1.055856
v -0.053586 2.011548 -0.937570
v -0.053586 0.000000 -0.552602
v 0.053587 1.557783 -0.937570
v 0.053587 0.234056 -0.552602
v 0.053587 0.742556 -0.908266
v 0.053587 0.475320 -0.824816
v 0.053587 0.296759 -0.699923
v -0.053586 0.234056 -0.552602
v -0.053586 1.557783 -0.937570
v -0.053586 0.296759 -0.699923
v -0.053586 0.475320 -0.824815
v -0.053586 0.742556 -0.908266
v 0.000000 2.000000 -2.000000
v 1.890702 0.050000 -2.000000
v 0.830184 2.316688 -2.000000
v 1.000001 0.050000 -2.000000
v 1.000001 1.570471 -2.000000
v 1.000000 2.000000 -2.000000
v 0.721749 2.316688 -2.000000
v 1.000001 0.270734 -2.000000
v 0.811508 2.500000 -2.000000
v 0.721749 2.000000 -2.000000
v 2.000001 0.000000 -2.000000
v 0.893015 2.150021 -2.000000
v 0.721749 2.500000 -2.000000
v 0.899418 1.476791 -2.000000
v 0.899419 0.421266 -2.000000
v 0.945351 0.050000 -0.109298
v 1.890702 0.050000 -1.054650
v 1.237481 0.050000 -0.155567
v 1.501015 0.050000 -0.289844
v 1.710156 0.050000 -0.498986
v 1.844433 0.050000 -0.762520
v 0.830184 2.316688 -1.584909
v 0.415092 2.316688 -1.169817
v 0.809868 2.316688 -1.456638
v 0.750908 2.316688 -1.340924
v 0.659077 2.316688 -1.249092
v 0.543362 2.316688 -1.190133
v 0.500000 0.050000 -1.000000
v 1.000001 0.050000 -1.500000
v 0.654509 0.050000 -1.024472
v 0.793893 0.050000 -1.095492
v 0.904509 0.050000 -1.206108
v 0.975529 0.050000 -1.345492
v 1.000001 1.570471 -1.500001
v 0.500000 1.570471 -1.000001
v 0.975529 1.570471 -1.345492
v 0.904509 1.570471 -1.206108
v 0.793893 1.570471 -1.095492
v 0.654509 1.570471 -1.024473
v 0.500000 2.000000 -1.000001
v 1.000000 2.000000 -1.500001
v 0.654508 2.000000 -1.024472
v 0.793893 2.000000 -1.095492
v 0.904508 2.000000 -1.206108
v 0.975528 2.000000 -1.345492
v 0.360874 2.316688 -1.278251
v 0.721749 2.316688 -1.639126
v 0.472391 2.316688 -1.295914
v 0.572991 2.316688 -1.347172
v 0.652828 2.316688 -1.427009
v 0.704087 2.316688 -1.527609
v 1.000001 0.270734 -1.500000
v 0.500000 0.270734 -1.000000
v 0.975529 0.270734 -1.345492
v 0.904509 0.270734 -1.206108
v 0.793893 0.270734 -1.095492
v 0.654509 0.270734 -1.024472
v 0.405754 2.500000 -1.188493
v 0.811508 2.500000 -1.594247
v 0.531139 2.500000 -1.208352
v 0.644250 2.500000 -1.265985
v 0.734016 2.500000 -1.355751
v 0.791649 2.500000 -1.468862
v 0.721749 2.000000 -1.639126
v 0.360875 2.000000 -1.278251
v 0.704087 2.000000 -1.527610
v 0.652829 2.000000 -1.427009
v 0.572992 2.000000 -1.347172
v 0.472391 2.000000 -1.295914
v 1.000000 0.000000 -0.000000
v 2.000001 -0.000000 -1.000000
v 1.309017 -0.000000 -0.048944
v 1.587786 0.000000 -0.190983
v 1.809018 0.000000 -0.412215
v 1.951057 -0.000000 -0.690983
v 0.893015 2.150021 -1.553493
v 0.446507 2.150021 -1.106986
v 0.871161 2.150021 -1.415515
v 0.807740 2.150021 -1.291043
v 0.708958 2.150021 -1.192261
v 0.584486 2.150021 -1.128840
v 0.360874 2.500000 -1.278251
v 0.721749 2.500000 -1.639126
v 0.472391 2.500000 -1.295914
v 0.572991 2.500000 -1.347172
v 0.652828 2.500000 -1.427009
v 0.704087 2.500000 -1.527610
v 0.449709 1.476791 -1.100582
v 0.899418 1.476791 -1.550292
v 0.588676 1.476791 -1.122593
v 0.714041 1.476791 -1.186469
v 0.813531 1.476791 -1.285959
v 0.877407 1.476791 -1.411324
v 0.899419 0.421266 -1.550292
v 0.449709 0.421266 -1.100582
v 0.877408 0.421266 -1.411324
v 0.813532 0.421266 -1.285959
v 0.714042 0.421266 -1.186469
v 0.588677 0.421266 -1.122593
v 0.053587 2.598871 -1.144033
v 0.053587 2.598871 -1.144033
v 0.053587 2.598871 -1.307211
v 0.053587 2.598871 -1.307211
v 0.053587 0.000000 -1.307211
v 0.053587 2.323394 -1.118225
v 0.053587 2.172848 -1.055856
v 0.053587 2.011548 -0.937570
v 0.053587 2.011548 -0.937570
v -0.053586 2.598871 -1.144033
v -0.053586 2.598871 -1.144033
v -0.053586 2.598871 -1.307211
v -0.053586 2.598871 -1.307211
v -0.053586 0.000000 -1.307211
v -0.053586 2.323394 -1.118225
v -0.053586 2.172848 -1.055856
v -0.053586 2.011548 -0.937570
v -0.053586 2.011548 -0.937570
v 0.053587 1.557783 -0.937570
v 0.053587 0.742556 -0.908266
v 0.053587 0.475320 -0.824816
v 0.053587 0.296759 -0.699923
v 0.053587 0.296759 -0.699923
v 0.053587 0.234056 -0.552602
v 0.053587 0.234056 -0.552602
v -0.053586 0.234056 -0.552602
v -0.053586 0.234056 -0.552602
v -0.053586 0.296759 -0.699923
v -0.053586 0.296759 -0.699923
v -0.053586 0.475320 -0.824815
v -0.053586 0.742556 -0.908266
v -0.053586 1.557783 -0.937570
v 0.053587 0.000000 -0.552602
v -0.053586 0.000000 -0.552602
v 0.721749 2.000000 -1.639126
v 0.704087 2.000000 -1.527610
v 0.652829 2.000000 -1.427009
v 0.572992 2.000000 -1.347172
v 0.472391 2.000000 -1.295914
v 0.360875 2.000000 -1.278251
v 0.405754 2.500000 -1.188493
v 0.531139 2.500000 -1.208352
v 0.644250 2.500000 -1.265985
v 0.734016 2.500000 -1.355751
v 0.791649 2.500000 -1.468862
v 0.811508 2.500000 -1.594247
v 0.877407 1.476791 -1.411324
v 0.899418 1.476791 -1.550292
v 0.899419 0.421266 -1.550292
v 0.877408 0.421266 -1.411324
v 0.813531 1.476791 -1.285959
v 0.813532 0.421266 -1.285959
v 0.714041 1.476791 -1.186469
v 0.714042 0.421266 -1.186469
v 0.588676 1.476791 -1.122593
v 0.588677 0.421266 -1.122593
v 0.449709 1.476791 -1.100582
v 0.449709 0.421266 -1.100582
v 0.654509 1.570471 -1.024473
v 0.500000 1.570471 -1.000001
v 0.500000 2.000000 -1.000001
v 0.654508 2.000000 -1.024472
v 0.793893 1.570471 -1.095492
v 0.793893 2.000000 -1.095492
v 0.904509 1.570471 -1.206108
v 0.904508 2.000000 -1.206108
v 0.975529 1.570471 -1.345492
v 0.975528 2.000000 -1.345492
v 1.000001 1.570471 -1.500001
v 1.000000 2.000000 -1.500001
v 0.360874 2.500000 -1.278251
v 0.472391 2.500000 -1.295914
v 0.572991 2.500000 -1.347172
v 0.652828 2.500000 -1.427009
v 0.704087 2.500000 -1.527610
v 0.721749 2.500000 -1.639126
v 0.654509 0.270734 -1.024472
v 0.500000 0.270734 -1.000000
v 0.793893 0.270734 -1.095492
v 0.904509 0.270734 -1.206108
v 0.975529 0.270734 -1.345492
v 1.000001 0.270734 -1.500000
v 0.500000 0.050000 -1.000000
v 0.654509 0.050000 -1.024472
v 0.793893 0.050000 -1.095492
v 0.904509 0.050000 -1.206108
v 0.975529 0.050000 -1.345492
v 1.000001 0.050000 -1.500000
v 0.000000 0.050000 -1.000000
v 1.000001 0.050000 -2.000000
v -0.000001 2.500000 -1.188493
v 0.811508 2.500000 -2.000000
v -0.000000 0.270734 -1.000000
v 1.000001 0.270734 -2.000000
v -0.000000 2.000000 -1.000001
v -0.000000 1.570471 -1.000001
v 1.000000 2.000000 -2.000000
v 1.000001 1.570471 -2.000000
v -0.000000 1.476791 -1.100582
v 0.899418 1.476791 -2.000000
v -0.000000 2.000000 -1.278251
v -0.000000 2.500000 -1.278251
v 0.721749 2.000000 -2.000000
v 0.721749 2.500000 -2.000000
v -0.000000 0.421266 -1.100582
v 0.899419 0.421266 -2.000000
vt 0.9448 0.4402
vt 0.9698 0.4379
vt 0.9690 0.4436
vt 0.8790 0.4438
vt 0.9044 0.4530
vt 0.8804 0.4557
vt 0.9456 0.2817
vt 0.9785 0.2701
vt 0.9774 0.2842
vt 0.9470 0.2936
vt 0.9774 0.2842
vt 0.9767 0.2957
vt 0.9450 0.4101
vt 0.9748 0.4022
vt 0.9733 0.4141
vt 0.9676 0.4553
vt 0.9426 0.4743
vt 0.9436 0.4529
vt 0.9433 0.4336
vt 0.9716 0.4257
vt 0.9698 0.4379
vt 0.9469 0.3659
vt 0.9758 0.3743
vt 0.9448 0.3747
vt 0.9448 0.4217
vt 0.9470 0.2936
vt 0.9758 0.3657
vt 0.9469 0.3659
vt 0.1028 0.3571
vt 0.0564 0.3803
vt 0.0564 0.3571
vt 0.9448 0.3747
vt 0.9748 0.4022
vt 0.9441 0.3988
vt 0.3547 0.1444
vt 0.3552 0.1024
vt 0.3315 0.1693
vt 0.3800 0.0173
vt 0.3315 0.0023
vt 0.3800 0.0023
vt 0.3315 0.1693
vt 0.3552 0.1024
vt 0.3547 0.1444
vt 0.3185 0.1645
vt 0.3116 0.1541
vt 0.3185 0.1541
vt 0.3185 0.1823
vt 0.3116 0.1928
vt 0.3116 0.1823
vt 0.3185 0.0173
vt 0.3116 0.0023
vt 0.3185 0.0023
vt 0.3116 0.1412
vt 0.3185 0.1412
vt 0.3185 0.3598
vt 0.3116 0.1928
vt 0.3185 0.1928
vt 0.3800 0.0173
vt 0.3800 0.0023
vt 0.3315 0.0023
vt 0.3116 0.1823
vt 0.3116 0.1645
vt 0.3571 0.0500
vt 0.3625 0.0328
vt 0.3705 0.0213
vt 0.3705 0.0213
vt 0.3625 0.0328
vt 0.3571 0.0500
vt 0.3116 0.1120
vt 0.3185 0.0596
vt 0.3185 0.1120
vt 0.3116 0.0596
vt 0.3185 0.0416
vt 0.3116 0.0416
vt 0.3185 0.0276
vt 0.3116 0.0276
vt 0.3185 0.0173
vt 0.3185 0.0276
vt 0.3185 0.1412
vt 0.8763 0.4261
vt 0.9044 0.4337
vt 0.8781 0.4381
vt 0.8822 0.4759
vt 0.8781 0.4381
vt 0.9030 0.4402
vt 0.8790 0.4438
vt 0.8688 0.2857
vt 0.8986 0.2943
vt 0.8697 0.2969
vt 0.8746 0.4148
vt 0.9028 0.4219
vt 0.8729 0.4031
vt 0.9024 0.4104
vt 0.8675 0.2720
vt 0.8997 0.2824
vt 0.8688 0.2857
vt 0.8697 0.2969
vt 0.8999 0.3663
vt 0.8707 0.3666
vt 0.8708 0.3753
vt 0.8999 0.3663
vt 0.9022 0.3750
vt 0.9448 0.4402
vt 0.1028 0.4035
vt 0.0796 0.4035
vt 0.8708 0.3753
vt 0.9031 0.3989
vt 0.8729 0.4031
vt 0.0575 0.3875
vt 0.0608 0.3939
vt 0.0660 0.3991
vt 0.0724 0.4023
vt 0.9122 0.4322
vt 0.9112 0.4205
vt 0.9199 0.4314
vt 0.9280 0.4199
vt 0.9196 0.4199
vt 0.9364 0.4204
vt 0.9277 0.4313
vt 0.9355 0.4321
vt 0.9110 0.4090
vt 0.9195 0.4084
vt 0.9364 0.4089
vt 0.9279 0.4083
vt 0.9374 0.2931
vt 0.9280 0.3660
vt 0.9375 0.3661
vt 0.9185 0.3663
vt 0.9276 0.2930
vt 0.9082 0.2935
vt 0.9179 0.2931
vt 0.9092 0.3664
vt 0.9022 0.3750
vt 0.9116 0.3978
vt 0.9108 0.3753
vt 0.9197 0.3973
vt 0.9191 0.3754
vt 0.9277 0.3973
vt 0.9274 0.3755
vt 0.9357 0.3978
vt 0.9359 0.3752
vt 0.9044 0.4337
vt 0.9112 0.4392
vt 0.9122 0.4322
vt 0.9196 0.4387
vt 0.9199 0.4314
vt 0.9281 0.4389
vt 0.9355 0.4321
vt 0.9277 0.4313
vt 0.9433 0.4336
vt 0.9365 0.4392
vt 0.8997 0.2824
vt 0.9082 0.2935
vt 0.9090 0.2813
vt 0.9179 0.2931
vt 0.9180 0.2806
vt 0.9276 0.2930
vt 0.9362 0.2808
vt 0.9271 0.2804
vt 0.9456 0.2817
vt 0.9374 0.2931
vt 0.9365 0.4392
vt 0.9359 0.4525
vt 0.9281 0.4389
vt 0.9280 0.4523
vt 0.9196 0.4387
vt 0.9200 0.4523
vt 0.9112 0.4392
vt 0.9121 0.4525
vt 0.9030 0.4402
vt 0.9375 0.3661
vt 0.9359 0.3752
vt 0.9280 0.3660
vt 0.9191 0.3754
vt 0.9274 0.3755
vt 0.9108 0.3753
vt 0.9185 0.3663
vt 0.9092 0.3664
vt 0.9054 0.4742
vt 0.9202 0.4738
vt 0.9128 0.4739
vt 0.9277 0.4738
vt 0.9352 0.4740
vt 0.9078 0.2682
vt 0.8983 0.2691
vt 0.9173 0.2675
vt 0.9090 0.2813
vt 0.9269 0.2672
vt 0.9180 0.2806
vt 0.9367 0.2673
vt 0.9271 0.2804
vt 0.9466 0.2678
vt 0.9362 0.2808
vt 0.9031 0.3989
vt 0.9116 0.3978
vt 0.9277 0.3973
vt 0.9197 0.3973
vt 0.9357 0.3978
vt 0.9441 0.3988
vt 0.9661 0.4759
vt 0.9758 0.3657
vt 0.9767 0.2957
vt 0.9758 0.3743
vt 0.3420 0.1693
vt 0.3517 0.1545
vt 0.3552 0.1316
vt 0.3517 0.1545
vt 0.3420 0.1693
vt 0.3552 0.1316
vt 0.3185 0.1928
vt 0.3116 0.0173
vt 0.3116 0.3598
vt 0.3185 0.1823
vt 0.3116 0.0276
vt 0.3116 0.0173
vt 0.3116 0.1412
vt 0.8986 0.2943
vt 0.8707 0.3666
vt 0.9690 0.4436
vt 0.0902 0.9545
vt 0.1218 0.8967
vt 0.1509 0.9537
vt 0.2191 0.8321
vt 0.2112 0.8928
vt 0.2113 0.8320
vt 0.0903 0.9622
vt 0.1546 0.9613
vt 0.2189 0.8963
vt 0.2082 0.9115
vt 0.2156 0.9162
vt 0.1997 0.9283
vt 0.2065 0.9342
vt 0.1864 0.9418
vt 0.1745 0.9579
vt 0.1923 0.9485
vt 0.1696 0.9505
vt 0.1523 0.8742
vt 0.1539 0.8643
vt 0.1478 0.8832
vt 0.1407 0.8904
vt 0.1318 0.8950
vt 0.1539 0.8320
vt 0.0896 0.8971
vn 0.0000 1.0000 0.0000
vn 0.0000 0.0000 -1.0000
vn -0.0784 0.0000 -0.9969
vn 0.9969 0.0000 0.0784
vn 1.0000 0.0000 0.0000
vn 0.8216 0.5673 0.0549
vn 0.8314 0.5556 0.0000
vn 0.8717 0.4854 0.0667
vn 0.8142 0.5806 0.0000
vn 0.8823 0.4706 0.0000
vn -1.0000 0.0000 0.0000
vn -0.9969 0.0000 -0.0784
vn 0.9916 0.1049 0.0759
vn 0.9734 0.2289 0.0000
vn 0.9948 0.1014 0.0000
vn 0.6695 -0.7416 0.0423
vn 0.6815 -0.7317 0.0000
vn 0.6636 -0.7455 0.0615
vn 0.9685 0.2376 0.0737
vn 0.0000 0.2407 0.9706
vn 0.0000 0.4906 0.8714
vn 0.0000 0.0000 1.0000
vn 0.0000 0.5914 0.8064
vn 0.0000 0.0933 0.9956
vn 0.0000 0.0179 0.9998
vn 0.0000 0.1685 0.9857
vn 0.0000 0.4408 0.8976
vn 0.0000 0.5731 0.8194
vn 0.0000 0.9201 0.3916
vn 0.0000 0.2289 0.9734
vn 0.0759 0.1049 0.9916
vn 0.0000 0.1014 0.9948
vn 0.0000 0.5556 0.8314
vn 0.0549 0.5673 0.8216
vn 0.0000 0.4706 0.8823
vn 0.0737 0.2376 0.9685
vn 0.0000 0.5806 0.8142
vn 0.0667 0.4854 0.8717
vn 0.0784 0.0000 0.9969
vn 0.0000 -0.7317 0.6815
vn 0.0423 -0.7416 0.6695
vn 0.0615 -0.7455 0.6636
vn 0.3039 0.1143 0.9458
vn 0.2946 0.2588 0.9199
vn 0.5825 0.1212 0.8037
vn 0.7790 0.2734 0.5643
vn 0.5643 0.2734 0.7790
vn 0.9199 0.2588 0.2946
vn 0.8037 0.1212 0.5825
vn 0.9458 0.1143 0.3039
vn 0.2607 0.5199 0.8134
vn 0.4929 0.5424 0.6803
vn 0.8134 0.5199 0.2607
vn 0.6803 0.5424 0.4929
vn 0.9510 0.0000 0.3090
vn 0.8090 0.0000 0.5878
vn 0.5878 0.0000 0.8090
vn 0.3090 0.0000 0.9510
vn 0.0733 0.5709 0.8177
vn 0.2330 0.6005 0.7649
vn 0.2579 0.6042 0.7539
vn 0.4549 0.6248 0.6345
vn 0.4620 0.6252 0.6290
vn 0.6345 0.6248 0.4549
vn 0.7539 0.6042 0.2579
vn 0.6290 0.6252 0.4620
vn 0.8177 0.5709 0.0733
vn 0.7649 0.6005 0.2330
vn -0.9510 0.0000 -0.3090
vn -0.8090 0.0000 -0.5878
vn -0.5878 0.0000 -0.8090
vn -0.3090 0.0000 -0.9510
vn 0.6120 -0.7694 0.1826
vn 0.5991 -0.7733 0.2075
vn 0.4996 -0.7893 0.3568
vn 0.3638 -0.7897 0.4939
vn 0.4939 -0.7897 0.3638
vn 0.2075 -0.7733 0.5991
vn 0.3568 -0.7893 0.4996
vn 0.1826 -0.7694 0.6120
vn 0.0721 0.5960 0.7997
vn 0.2521 0.6291 0.7353
vn 0.6124 0.6499 0.4501
vn 0.4501 0.6499 0.6124
vn 0.7353 0.6291 0.2521
vn 0.7997 0.5960 0.0721
vn 0.2129 0.9771 0.0000
vn 0.2173 0.9760 0.0129
vn 0.0000 0.9094 0.4160
vn 0.0129 0.9760 0.2173
vn 0.0000 0.9771 0.2129
vn 0.4160 0.9094 0.0000
vn 0.3998 0.9158 0.0381
vn 0.0381 0.9158 0.3998
vn 0.0592 0.9774 0.2026
vn 0.1233 0.9277 0.3523
vn 0.1153 0.9800 0.1621
vn 0.2116 0.9343 0.2868
vn 0.1621 0.9800 0.1153
vn 0.3523 0.9277 0.1233
vn 0.2868 0.9343 0.2116
vn 0.2026 0.9774 0.0592
s 1
f 213/1/1 47/2/1 241/3/1
f 2/4/2 84/5/3 14/6/2
f 90/7/4 42/8/5 46/9/5
f 132/10/6 231/11/7 53/12/7
f 114/13/8 44/14/9 50/15/10
f 45/16/11 102/17/12 85/18/12
f 183/19/13 41/20/14 229/21/15
f 127/22/16 43/23/17 72/24/18
f 60/25/19 50/15/10 41/20/14
f 186/26/4 237/27/5 185/28/4
f 39/29/1 172/30/1 48/31/1
f 206/32/4 234/33/5 207/34/4
f 144/35/5 156/36/5 140/37/5
f 163/38/11 151/39/11 171/40/11
f 149/41/11 169/42/11 153/43/11
f 18/44/20 26/45/21 19/46/21
f 139/47/1 150/48/1 148/49/1
f 162/50/22 28/51/22 21/52/22
f 19/46/21 155/53/23 146/54/23
f 17/55/2 23/56/2 15/57/2
f 161/58/5 170/59/5 142/60/5
f 18/44/20 22/61/24 25/62/20
f 156/36/5 157/63/5 142/60/5
f 157/63/5 158/64/5 142/60/5
f 158/64/5 159/65/5 142/60/5
f 159/65/5 161/58/5 142/60/5
f 163/38/11 165/66/11 151/39/11
f 165/66/11 167/67/11 151/39/11
f 167/67/11 168/68/11 151/39/11
f 168/68/11 169/42/11 151/39/11
f 35/69/25 31/70/26 29/71/25
f 38/72/26 32/73/27 31/70/26
f 37/74/27 160/75/28 32/73/27
f 36/76/29 30/77/29 33/78/29
f 20/79/22 35/69/25 29/71/25
f 12/80/30 178/81/31 3/82/32
f 84/5/3 238/83/2 14/6/2
f 228/84/1 208/85/1 239/86/1
f 230/87/33 133/88/34 242/89/33
f 11/90/35 61/91/36 12/80/30
f 8/92/37 115/93/38 11/90/35
f 1/94/22 91/95/39 9/96/22
f 6/97/22 194/98/39 13/99/22
f 233/100/40 126/101/41 73/102/42
f 121/103/12 45/16/11 85/18/12
f 39/29/1 4/104/1 177/105/1
f 7/106/22 198/107/39 232/108/22
f 172/30/1 39/29/1 173/109/1
f 173/109/1 39/29/1 174/110/1
f 174/110/1 39/29/1 175/111/1
f 175/111/1 39/29/1 176/112/1
f 176/112/1 39/29/1 177/105/1
f 61/91/36 179/113/43 178/81/31
f 65/114/44 180/115/45 179/113/43
f 63/116/46 180/115/45 64/117/47
f 62/118/48 181/119/49 63/116/46
f 60/25/19 182/120/50 62/118/48
f 115/93/38 65/114/44 61/91/36
f 119/121/51 64/117/47 65/114/44
f 118/122/52 63/116/46 64/117/47
f 116/123/53 63/116/46 117/124/54
f 114/13/8 62/118/48 116/123/53
f 185/28/4 187/125/55 186/26/4
f 188/126/56 187/125/55 184/127/55
f 190/128/57 189/129/56 188/126/56
f 190/128/57 193/130/58 191/131/57
f 194/98/39 193/130/58 192/132/58
f 197/133/39 199/134/58 198/107/39
f 196/135/58 201/136/57 199/134/58
f 200/137/57 203/138/56 201/136/57
f 202/139/56 205/140/55 203/138/56
f 206/32/4 205/140/55 204/141/55
f 96/142/1 209/143/1 208/85/1
f 98/144/1 210/145/1 209/143/1
f 99/146/1 211/147/1 210/145/1
f 101/148/1 211/147/1 100/149/1
f 97/150/1 212/151/1 101/148/1
f 215/152/59 137/153/60 133/88/34
f 214/154/61 136/155/62 137/153/60
f 216/156/63 135/157/64 136/155/62
f 218/158/65 135/157/64 217/159/66
f 219/160/67 134/161/68 218/158/65
f 85/18/12 125/162/69 121/103/12
f 89/163/69 124/164/70 125/162/69
f 88/165/70 123/166/71 124/164/70
f 87/167/71 122/168/72 123/166/71
f 86/169/72 120/170/3 122/168/72
f 72/24/18 131/171/73 127/22/16
f 74/172/74 130/173/75 131/171/73
f 76/174/76 130/173/75 75/175/77
f 77/176/78 129/177/79 76/174/76
f 73/102/42 128/178/80 77/176/78
f 86/169/72 103/179/3 84/5/3
f 86/169/72 106/180/71 107/181/72
f 88/165/70 106/180/71 87/167/71
f 89/163/69 105/182/70 88/165/70
f 85/18/12 104/183/69 89/163/69
f 68/184/58 91/95/39 66/185/39
f 69/186/57 95/187/58 68/184/58
f 70/188/56 94/189/57 69/186/57
f 71/190/55 93/191/56 70/188/56
f 67/192/4 92/193/55 71/190/55
f 78/194/81 119/121/51 115/93/38
f 80/195/82 118/122/52 119/121/51
f 82/196/83 118/122/52 81/197/84
f 83/198/85 117/124/54 82/196/83
f 79/199/86 116/123/53 83/198/85
f 213/1/1 97/150/1 47/2/1
f 2/4/2 120/170/3 84/5/3
f 90/7/4 67/192/4 42/8/5
f 132/10/6 219/160/67 231/11/7
f 114/13/8 79/199/86 44/14/9
f 45/16/11 240/200/11 102/17/12
f 183/19/13 60/25/19 41/20/14
f 127/22/16 52/201/17 43/23/17
f 60/25/19 114/13/8 50/15/10
f 186/26/4 243/202/5 237/27/5
f 206/32/4 235/203/5 234/33/5
f 140/37/5 138/204/5 143/205/5
f 144/35/5 145/206/5 156/36/5
f 140/37/5 143/205/5 144/35/5
f 156/36/5 142/60/5 140/37/5
f 152/207/11 147/208/11 149/41/11
f 149/41/11 151/39/11 169/42/11
f 169/42/11 154/209/11 153/43/11
f 153/43/11 152/207/11 149/41/11
f 18/44/20 25/62/20 26/45/21
f 139/47/1 141/210/1 150/48/1
f 162/50/22 164/211/22 28/51/22
f 19/46/21 26/45/21 155/53/23
f 17/55/2 24/212/2 23/56/2
f 18/44/20 16/213/24 22/61/24
f 35/69/25 38/72/26 31/70/26
f 38/72/26 37/74/27 32/73/27
f 37/74/27 166/214/28 160/75/28
f 36/76/29 34/215/29 30/77/29
f 20/79/22 27/216/22 35/69/25
f 12/80/30 61/91/36 178/81/31
f 84/5/3 103/179/3 238/83/2
f 228/84/1 96/142/1 208/85/1
f 230/87/33 215/152/59 133/88/34
f 11/90/35 115/93/38 61/91/36
f 8/92/37 78/194/81 115/93/38
f 1/94/22 66/185/39 91/95/39
f 6/97/22 195/217/39 194/98/39
f 233/100/40 236/218/40 126/101/41
f 121/103/12 51/219/11 45/16/11
f 7/106/22 197/133/39 198/107/39
f 61/91/36 65/114/44 179/113/43
f 65/114/44 64/117/47 180/115/45
f 63/116/46 181/119/49 180/115/45
f 62/118/48 182/120/50 181/119/49
f 60/25/19 183/19/13 182/120/50
f 115/93/38 119/121/51 65/114/44
f 119/121/51 118/122/52 64/117/47
f 118/122/52 117/124/54 63/116/46
f 116/123/53 62/118/48 63/116/46
f 114/13/8 60/25/19 62/118/48
f 185/28/4 184/127/55 187/125/55
f 188/126/56 189/129/56 187/125/55
f 190/128/57 191/131/57 189/129/56
f 190/128/57 192/132/58 193/130/58
f 194/98/39 195/217/39 193/130/58
f 197/133/39 196/135/58 199/134/58
f 196/135/58 200/137/57 201/136/57
f 200/137/57 202/139/56 203/138/56
f 202/139/56 204/141/55 205/140/55
f 206/32/4 207/34/4 205/140/55
f 96/142/1 98/144/1 209/143/1
f 98/144/1 99/146/1 210/145/1
f 99/146/1 100/149/1 211/147/1
f 101/148/1 212/151/1 211/147/1
f 97/150/1 213/1/1 212/151/1
f 215/152/59 214/154/61 137/153/60
f 214/154/61 216/156/63 136/155/62
f 216/156/63 217/159/66 135/157/64
f 218/158/65 134/161/68 135/157/64
f 219/160/67 132/10/6 134/161/68
f 85/18/12 89/163/69 125/162/69
f 89/163/69 88/165/70 124/164/70
f 88/165/70 87/167/71 123/166/71
f 87/167/71 86/169/72 122/168/72
f 86/169/72 84/5/3 120/170/3
f 72/24/18 74/172/74 131/171/73
f 74/172/74 75/175/77 130/173/75
f 76/174/76 129/177/79 130/173/75
f 77/176/78 128/178/80 129/177/79
f 73/102/42 126/101/41 128/178/80
f 86/169/72 107/181/72 103/179/3
f 86/169/72 87/167/71 106/180/71
f 88/165/70 105/182/70 106/180/71
f 89/163/69 104/183/69 105/182/70
f 85/18/12 102/17/12 104/183/69
f 68/184/58 95/187/58 91/95/39
f 69/186/57 94/189/57 95/187/58
f 70/188/56 93/191/56 94/189/57
f 71/190/55 92/193/55 93/191/56
f 67/192/4 90/7/4 92/193/55
f 78/194/81 80/195/82 119/121/51
f 80/195/82 81/197/84 118/122/52
f 82/196/83 117/124/54 118/122/52
f 83/198/85 116/123/53 117/124/54
f 79/199/86 114/13/8 116/123/53
f 40/220/87 225/221/1 55/222/88
f 10/223/89 54/224/90 5/225/91
f 49/226/92 55/222/88 109/227/93
f 108/228/94 56/229/95 54/224/90
f 110/230/96 57/231/97 56/229/95
f 111/232/98 58/233/99 57/231/97
f 113/234/100 58/233/99 112/235/101
f 109/227/93 59/236/102 113/234/100
f 54/224/90 221/237/1 220/238/1
f 56/229/95 222/239/1 221/237/1
f 58/233/99 222/239/1 57/231/97
f 59/236/102 223/240/1 58/233/99
f 55/222/88 224/241/1 59/236/102
f 5/225/91 220/238/1 226/242/1
f 40/220/87 227/243/1 225/221/1
f 10/223/89 108/228/94 54/224/90
f 49/226/92 40/220/87 55/222/88
f 108/228/94 110/230/96 56/229/95
f 110/230/96 111/232/98 57/231/97
f 111/232/98 112/235/101 58/233/99
f 113/234/100 59/236/102 58/233/99
f 109/227/93 55/222/88 59/236/102
f 54/224/90 56/229/95 221/237/1
f 56/229/95 57/231/97 222/239/1
f 58/233/99 223/240/1 222/239/1
f 59/236/102 224/241/1 223/240/1
f 55/222/88 225/221/1 224/241/1
f 5/225/91 54/224/90 220/238/1
