# Blender v2.78 (sub 0) OBJ File: 'modular.blend'
# www.blender.org
o WallSection-2x4_Cube.002
v -1.000000 0.050000 -4.000000
v -1.000000 0.050000 0.000000
v -1.278251 2.500000 0.000000
v -1.278250 2.500000 -4.000000
v -1.188492 2.500000 -4.000000
v -1.188493 2.500000 0.000001
v -2.000000 2.000000 -0.000000
v -2.000000 2.000000 -4.000000
v -1.278250 2.000000 -4.000000
v -1.278251 2.000000 0.000000
v -0.109298 0.050000 -4.000000
v -0.109298 0.050000 0.000000
v -1.100582 0.421266 -4.000000
v -1.000000 1.570471 -4.000000
v -1.100582 0.421266 0.000000
v -1.000000 1.570471 0.000000
v -1.000000 2.000000 -4.000000
v -1.000000 2.000000 0.000000
v -1.000000 0.270734 -4.000000
v -1.000000 0.270734 0.000000
v 0.000000 0.000000 -4.000000
v 0.000000 0.000000 0.000000
v -1.106985 2.150021 -4.000000
v -1.169816 2.316688 -4.000000
v -1.106986 2.150021 0.000000
v -1.169817 2.316688 0.000000
v -1.100582 1.476791 -4.000000
v -1.100582 1.476791 0.000000
v -1.278250 2.500000 -3.573953
v -1.278251 2.500000 -0.426046
v -1.188492 2.500000 -3.573953
v -1.188492 2.500000 -0.426046
v -1.169816 2.316688 -3.420564
v -1.169816 2.316688 -0.579435
v -1.100582 0.421266 -2.774770
v -1.278250 2.316688 -3.420564
v -1.278251 2.316688 -0.579435
v -1.278251 2.000000 -2.000000
v -1.278250 2.316688 -4.000000
v -1.278251 2.316688 0.000000
v -1.307211 2.598871 -0.053587
v -1.144033 2.598871 -0.053586
v -1.307211 0.000000 -0.053587
v -1.118225 2.323394 -0.053586
v -1.055856 2.172848 -0.053586
v -0.937570 2.011548 -0.053586
v -0.552602 0.000000 -0.053586
v -1.144033 2.598871 0.053586
v -1.307211 2.598871 0.053586
v -1.307211 0.000000 0.053586
v -1.118225 2.323394 0.053586
v -1.055856 2.172848 0.053586
v -0.937570 2.011548 0.053586
v -0.552602 0.000000 0.053586
v -0.937570 1.557783 -0.053586
v -0.552602 0.234056 -0.053586
v -0.908266 0.742556 -0.053586
v -0.824815 0.475320 -0.053586
v -0.699923 0.296759 -0.053586
v -0.552602 0.234056 0.053586
v -0.937570 1.557783 0.053586
v -0.699923 0.296759 0.053586
v -0.824815 0.475320 0.053586
v -0.908266 0.742556 0.053586
v -1.100582 0.421266 -1.225230
v -0.109298 0.050000 -2.666667
v -0.109298 0.050000 -1.333333
v -1.000000 0.050000 -2.666667
v -1.000000 0.050000 -1.333333
v -1.000000 1.570471 -2.666666
v -1.000000 1.570471 -1.333333
v -1.000000 2.000000 -2.666666
v -1.000000 2.000000 -1.333333
v -1.000000 0.270734 -2.666667
v -1.000000 0.270734 -1.333333
v 0.000000 0.000000 -2.666667
v 0.000000 0.000000 -1.333333
v -1.106985 2.150021 -2.666666
v -1.106986 2.150021 -1.333333
v -1.100582 1.476791 -2.774770
v -1.100582 1.476791 -1.225229
v -1.000000 0.050000 -1.554950
v -1.000000 0.050000 -2.445050
v -1.000000 0.219374 -1.554950
v -1.000000 0.250000 -1.585576
v -1.000000 0.250000 -2.414424
v -1.000000 0.219374 -2.445050
v -0.800000 0.050000 -1.585576
v -0.830626 0.050000 -1.554950
v -0.830626 0.050000 -2.445050
v -0.800000 0.050000 -2.414424
v -0.830626 0.099395 -1.554950
v -0.800000 0.108997 -1.585576
v -0.914061 0.219374 -1.554950
v -0.898055 0.250000 -1.585576
v -0.914061 0.219374 -2.445050
v -0.898055 0.250000 -2.414424
v -0.830626 0.099395 -2.445050
v -0.800000 0.108997 -2.414424
v -1.278251 2.500000 -0.426046
v -1.278251 2.500000 -0.426046
v -1.278251 2.500000 0.000000
v -1.188492 2.500000 -0.426046
v -1.188492 2.500000 -0.426046
v -1.188493 2.500000 0.000001
v -1.188492 2.500000 -4.000000
v -1.188492 2.500000 -3.573953
v -1.188492 2.500000 -3.573953
v -1.278251 2.000000 -2.000000
v -1.278251 2.000000 0.000000
v -1.100582 0.421266 -1.225230
v -1.100582 0.421266 -1.225230
v -1.100582 0.421266 0.000000
v -1.278250 2.500000 -4.000000
v -1.278250 2.500000 -3.573953
v -1.278250 2.500000 -3.573953
v -1.100582 0.421266 -4.000000
v -1.100582 0.421266 -2.774770
v -1.100582 0.421266 -2.774770
v -1.000000 0.050000 -1.333333
v -1.000000 0.050000 0.000000
v -1.169816 2.316688 -3.420564
v -1.169816 2.316688 -3.420564
v -1.169816 2.316688 -0.579435
v -1.169816 2.316688 -0.579435
v -1.000000 1.570471 -1.333333
v -1.000000 1.570471 -1.333333
v -1.000000 1.570471 0.000000
v -1.000000 2.000000 -1.333333
v -1.000000 2.000000 0.000000
v -1.000000 0.270734 -1.333333
v -1.000000 0.270734 -1.333333
v -1.000000 0.270734 0.000000
v -1.100582 1.476791 -1.225229
v -1.100582 1.476791 -1.225229
v -1.100582 1.476791 0.000000
v -1.278251 2.316688 -0.579435
v -1.278251 2.316688 -0.579435
v -1.278250 2.316688 -3.420564
v -1.278250 2.316688 -3.420564
v -1.278250 2.000000 -4.000000
v -1.144033 2.598871 -0.053586
v -1.144033 2.598871 -0.053586
v -1.307211 2.598871 -0.053587
v -1.307211 2.598871 -0.053587
v -1.307211 0.000000 -0.053587
v -1.118225 2.323394 -0.053586
v -1.055856 2.172848 -0.053586
v -0.937570 2.011548 -0.053586
v -0.937570 2.011548 -0.053586
v -1.144033 2.598871 0.053586
v -1.144033 2.598871 0.053586
v -1.307211 2.598871 0.053586
v -1.307211 2.598871 0.053586
v -1.307211 0.000000 0.053586
v -1.118225 2.323394 0.053586
v -1.055856 2.172848 0.053586
v -0.937570 2.011548 0.053586
v -0.937570 2.011548 0.053586
v -0.937570 1.557783 -0.053586
v -0.908266 0.742556 -0.053586
v -0.824815 0.475320 -0.053586
v -0.699923 0.296759 -0.053586
v -0.699923 0.296759 -0.053586
v -0.552602 0.234056 -0.053586
v -0.552602 0.234056 -0.053586
v -0.552602 0.234056 0.053586
v -0.552602 0.234056 0.053586
v -0.699923 0.296759 0.053586
v -0.699923 0.296759 0.053586
v -0.824815 0.475320 0.053586
v -0.908266 0.742556 0.053586
v -0.937570 1.557783 0.053586
v -0.552602 0.000000 -0.053586
v -0.552602 0.000000 0.053586
v -1.000000 0.050000 -4.000000
v -1.000000 0.050000 -2.666667
v -1.000000 1.570471 -4.000000
v -1.000000 1.570471 -2.666666
v -1.000000 1.570471 -2.666666
v -1.000000 2.000000 -4.000000
v -1.000000 2.000000 -2.666666
v -1.000000 0.270734 -4.000000
v -1.000000 0.270734 -2.666667
v -1.000000 0.270734 -2.666667
v -1.100582 1.476791 -4.000000
v -1.100582 1.476791 -2.774770
v -1.100582 1.476791 -2.774770
v -0.830626 0.099395 -2.445050
v -0.914061 0.219374 -2.445050
v -0.914061 0.219374 -2.445050
v -0.898055 0.250000 -2.414424
v -0.898055 0.250000 -2.414424
v -0.898055 0.250000 -2.414424
v -0.800000 0.108997 -2.414424
v -0.800000 0.108997 -2.414424
v -0.898055 0.250000 -1.585576
v -0.898055 0.250000 -1.585576
v -0.898055 0.250000 -1.585576
v -0.914061 0.219374 -1.554950
v -0.914061 0.219374 -1.554950
v -0.830626 0.099395 -1.554950
v -0.800000 0.108997 -1.585576
v -0.800000 0.108997 -1.585576
v -1.000000 0.219374 -2.445050
v -1.000000 0.250000 -2.414424
v -1.000000 0.219374 -1.554950
v -1.000000 0.250000 -1.585576
v -0.830626 0.050000 -2.445050
v -0.800000 0.050000 -2.414424
v -0.830626 0.050000 -1.554950
v -0.800000 0.050000 -1.585576
vt 0.4732 0.0973
vt 0.5006 0.0854
vt 0.4633 0.0854
vt 0.7982 0.7189
vt 0.8043 0.7467
vt 0.7984 0.7467
vt 0.2596 0.6894
vt 0.2596 0.7358
vt 0.1310 0.7358
vt 0.6715 0.6615
vt 0.6543 0.7382
vt 0.6610 0.6523
vt 0.7359 0.6644
vt 0.7469 0.7412
vt 0.7377 0.7414
vt 0.7726 0.6544
vt 0.7469 0.7412
vt 0.7442 0.6551
vt 0.6610 0.6523
vt 0.6406 0.7371
vt 0.6471 0.6518
vt 0.8021 0.4737
vt 0.7964 0.5016
vt 0.7962 0.4737
vt 0.7718 0.5663
vt 0.7840 0.4803
vt 0.7839 0.5663
vt 0.5006 0.0854
vt 0.4732 0.0973
vt 0.4633 0.0854
vt 0.7847 0.6542
vt 0.7968 0.7032
vt 0.7370 0.4795
vt 0.6714 0.5583
vt 0.6663 0.4819
vt 0.7741 0.7407
vt 0.7859 0.7405
vt 0.7953 0.5172
vt 0.8039 0.7032
vt 0.7968 0.7032
vt 0.7982 0.7189
vt 0.8039 0.7032
vt 0.8040 0.7188
vt 0.8024 0.5172
vt 0.7964 0.5016
vt 0.8023 0.5015
vt 0.8024 0.5172
vt 0.8239 0.6100
vt 0.8039 0.7032
vt 0.4450 0.6457
vt 0.4724 0.6575
vt 0.4450 0.6575
vt 0.4450 0.6253
vt 0.4823 0.6457
vt 0.4724 0.6575
vt 0.4450 0.6457
vt 0.4450 0.6575
vt 0.4450 0.6253
vt 0.4823 0.6457
vt 0.5736 0.6253
vt 0.3547 0.1444
vt 0.3552 0.1024
vt 0.3315 0.1693
vt 0.3800 0.0173
vt 0.3315 0.0023
vt 0.3800 0.0023
vt 0.3315 0.1693
vt 0.3552 0.1024
vt 0.3547 0.1444
vt 0.3185 0.1645
vt 0.3116 0.1540
vt 0.3185 0.1540
vt 0.3185 0.1823
vt 0.3116 0.1928
vt 0.3116 0.1823
vt 0.3185 0.0173
vt 0.3116 0.0023
vt 0.3185 0.0023
vt 0.3116 0.1412
vt 0.3185 0.1412
vt 0.3185 0.3598
vt 0.3116 0.1928
vt 0.3185 0.1928
vt 0.3800 0.0173
vt 0.3800 0.0023
vt 0.3315 0.0023
vt 0.3185 0.1823
vt 0.3116 0.1645
vt 0.3571 0.0500
vt 0.3625 0.0328
vt 0.3705 0.0213
vt 0.3705 0.0213
vt 0.3625 0.0328
vt 0.3571 0.0500
vt 0.3116 0.1120
vt 0.3185 0.0596
vt 0.3185 0.1120
vt 0.3116 0.0596
vt 0.3185 0.0416
vt 0.3116 0.0416
vt 0.3185 0.0276
vt 0.3116 0.0276
vt 0.3185 0.0173
vt 0.3185 0.0276
vt 0.3185 0.1412
vt 0.7359 0.6644
vt 0.6663 0.7391
vt 0.6715 0.6615
vt 0.6714 0.5583
vt 0.7438 0.5664
vt 0.6609 0.5672
vt 0.7726 0.6544
vt 0.6545 0.4827
vt 0.6469 0.5677
vt 0.6406 0.4838
vt 0.6609 0.5672
vt 0.7722 0.4802
vt 0.7438 0.5664
vt 0.7462 0.4797
vt 0.7718 0.5663
vt 0.7462 0.4797
vt 0.7354 0.5570
vt 0.7370 0.4795
vt 0.7442 0.6551
vt 0.6715 0.6615
vt 0.6610 0.6523
vt 0.6545 0.4827
vt 0.6714 0.5583
vt 0.6609 0.5672
vt 0.5801 0.5928
vt 0.5928 0.5020
vt 0.5928 0.5898
vt 0.6133 0.5898
vt 0.6191 0.4990
vt 0.6191 0.5908
vt 0.5928 0.5020
vt 0.6133 0.5898
vt 0.5928 0.5898
vt 0.5938 0.5957
vt 0.6123 0.5957
vt 0.6055 0.6172
vt 0.5938 0.5957
vt 0.6133 0.5898
vt 0.6123 0.5957
vt 0.5938 0.4961
vt 0.6133 0.5000
vt 0.5928 0.5020
vt 0.5938 0.5957
vt 0.5801 0.5928
vt 0.5928 0.5898
vt 0.5938 0.4961
vt 0.5801 0.4990
vt 0.5820 0.4932
vt 0.6191 0.5908
vt 0.6182 0.5967
vt 0.6123 0.4951
vt 0.6191 0.4990
vt 0.5938 0.4961
vt 0.5869 0.4873
vt 0.6055 0.4746
vt 0.5006 0.0973
vt 0.8040 0.7188
vt 0.0025 0.7358
vt 0.0025 0.6894
vt 0.6663 0.7391
vt 0.7442 0.6551
vt 0.7741 0.7407
vt 0.6543 0.7382
vt 0.8023 0.5015
vt 0.7722 0.4802
vt 0.5006 0.0973
vt 0.7953 0.4803
vt 0.7953 0.5172
vt 0.7973 0.7403
vt 0.7354 0.5570
vt 0.8024 0.5172
vt 0.7968 0.7032
vt 0.7953 0.5172
vt 0.3420 0.1693
vt 0.3517 0.1545
vt 0.3552 0.1316
vt 0.3517 0.1545
vt 0.3420 0.1693
vt 0.3552 0.1316
vt 0.3185 0.1928
vt 0.3116 0.0173
vt 0.3116 0.3598
vt 0.3116 0.1823
vt 0.3116 0.0276
vt 0.3116 0.0173
vt 0.3116 0.1412
vt 0.7377 0.7414
vt 0.7354 0.5570
vt 0.7438 0.5664
vt 0.7359 0.6644
vt 0.6663 0.4819
vt 0.5801 0.4990
vt 0.6133 0.5000
vt 0.6133 0.5000
vt 0.6182 0.5986
vt 0.5869 0.6045
vt 0.5928 0.5898
vt 0.5820 0.5986
vt 0.5928 0.5020
vt 0.6182 0.4932
vt 0.6182 0.4912
vt 0.6123 0.4951
vt 0.8271 0.2078
vt 0.8348 0.2935
vt 0.8271 0.2935
vt 0.7699 0.2078
vt 0.7699 0.2935
vt 0.7699 0.3792
vt 0.8271 0.4649
vt 0.7699 0.4649
vt 0.8271 0.3792
vt 0.8348 0.4649
vt 0.8348 0.3792
vt 0.8348 0.2078
vn 0.9948 0.1014 0.0000
vn 0.9734 0.2289 0.0000
vn 0.9540 0.2996 0.0000
vn 0.0000 1.0000 0.0000
vn 0.8314 0.5556 0.0000
vn 0.6815 -0.7317 0.0000
vn 1.0000 0.0000 0.0000
vn 0.8142 0.5806 0.0000
vn 0.8823 0.4706 0.0000
vn 0.0000 0.6417 -0.7669
vn 0.0000 0.6417 0.7669
vn -1.0000 0.0000 0.0000
vn 0.0000 0.0000 -1.0000
vn 0.0000 0.0000 1.0000
vn 0.9706 0.2407 0.0000
vn 0.8714 0.4906 0.0000
vn 0.8064 0.5914 0.0000
vn 0.9956 0.0933 0.0000
vn 0.9998 0.0179 0.0000
vn 0.9857 0.1685 0.0000
vn 0.8976 0.4408 0.0000
vn 0.8194 0.5731 0.0000
vn 0.3916 0.9201 0.0000
vn 0.7321 0.0000 -0.6812
vn 0.7321 0.0000 0.6812
vn 0.8210 0.5709 0.0000
vn 0.5805 0.4037 -0.7071
vn 0.6587 0.2065 -0.7235
vn 0.5805 0.4037 0.7071
vn 0.6587 0.2065 0.7235
vn 0.0000 0.7071 -0.7071
vn 0.0000 0.7071 0.7071
vn 0.7071 0.0000 -0.7071
vn 0.7071 0.0000 0.7071
vn 0.2129 0.9771 0.0000
vn 0.4160 0.9094 0.0000
s 1
f 103/1/1 26/2/2 124/3/3
f 104/4/4 102/5/4 105/6/4
f 7/7/4 110/8/4 109/9/4
f 111/10/5 133/11/5 131/12/5
f 134/13/6 128/14/6 136/15/6
f 129/16/7 16/17/7 71/18/7
f 75/19/7 2/20/7 69/21/7
f 114/22/4 107/23/4 5/24/4
f 182/25/8 23/26/9 78/27/9
f 24/28/2 108/29/1 122/30/3
f 79/31/9 78/27/9 124/32/3
f 27/33/7 118/34/7 13/35/7
f 18/36/8 79/31/9 25/37/9
f 123/38/4 137/39/4 125/40/4
f 32/41/10 138/42/10 101/43/10
f 140/44/11 31/45/11 116/46/11
f 36/47/12 38/48/12 37/49/12
f 39/50/12 29/51/12 4/52/12
f 9/53/12 36/54/12 39/50/12
f 30/55/12 40/56/12 3/57/12
f 10/58/12 37/59/12 38/60/12
f 148/61/13 160/62/13 144/63/13
f 167/64/14 155/65/14 175/66/14
f 153/67/14 173/68/14 157/69/14
f 44/70/15 52/71/16 45/72/16
f 143/73/4 154/74/4 152/75/4
f 166/76/7 54/77/7 47/78/7
f 45/72/16 159/79/17 150/80/17
f 43/81/12 49/82/12 41/83/12
f 165/84/13 174/85/13 146/86/13
f 42/87/18 51/88/15 44/70/15
f 160/62/13 161/89/13 146/86/13
f 161/89/13 162/90/13 146/86/13
f 162/90/13 163/91/13 146/86/13
f 163/91/13 165/84/13 146/86/13
f 167/64/14 169/92/14 155/65/14
f 169/92/14 171/93/14 155/65/14
f 171/93/14 172/94/14 155/65/14
f 172/94/14 173/68/14 155/65/14
f 61/95/19 57/96/20 55/97/19
f 64/98/20 58/99/21 57/96/20
f 63/100/21 164/101/22 58/99/21
f 62/102/23 56/103/23 59/104/23
f 46/105/7 61/95/19 55/97/19
f 135/106/7 15/107/7 112/108/7
f 119/109/24 180/110/24 185/111/24
f 73/112/8 78/27/9 79/31/9
f 19/113/7 177/114/7 1/115/7
f 184/116/7 69/21/7 177/114/7
f 181/117/7 179/118/7 14/119/7
f 72/120/7 71/18/7 179/118/7
f 178/121/6 80/122/6 186/123/6
f 127/124/25 65/125/25 132/126/25
f 183/127/5 35/128/5 74/129/5
f 75/19/7 179/118/7 71/18/7
f 86/130/4 199/131/4 194/132/4
f 99/133/7 88/134/7 91/135/7
f 198/136/26 196/137/26 193/138/26
f 190/139/13 98/140/13 83/141/13
f 191/142/27 195/143/28 189/144/28
f 200/145/29 203/146/30 197/147/29
f 96/148/31 206/149/31 97/150/31
f 201/151/32 208/152/32 207/153/32
f 189/144/28 210/154/33 209/155/33
f 202/156/30 212/157/34 203/146/30
f 94/158/14 84/159/14 82/160/14
f 103/1/1 6/161/1 26/2/2
f 104/4/4 100/162/4 102/5/4
f 109/9/4 141/163/4 8/164/4
f 8/164/4 7/7/4 109/9/4
f 111/10/5 113/165/5 133/11/5
f 134/13/6 126/166/6 128/14/6
f 129/16/7 130/167/7 16/17/7
f 75/19/7 20/168/7 2/20/7
f 114/22/4 115/169/4 107/23/4
f 182/25/8 17/170/8 23/26/9
f 24/28/2 106/171/1 108/29/1
f 24/172/2 122/173/3 23/26/9
f 124/32/3 26/174/2 25/37/9
f 25/37/9 79/31/9 124/32/3
f 78/27/9 23/26/9 122/173/3
f 122/173/3 124/32/3 78/27/9
f 27/33/7 187/175/7 118/34/7
f 18/36/8 73/112/8 79/31/9
f 123/38/4 139/176/4 137/39/4
f 32/41/10 34/177/10 138/42/10
f 140/44/11 33/178/11 31/45/11
f 39/50/12 36/54/12 29/51/12
f 9/53/12 38/60/12 36/54/12
f 30/55/12 37/59/12 40/56/12
f 10/58/12 40/56/12 37/59/12
f 144/63/13 142/179/13 147/180/13
f 148/61/13 149/181/13 160/62/13
f 144/63/13 147/180/13 148/61/13
f 160/62/13 146/86/13 144/63/13
f 156/182/14 151/183/14 153/67/14
f 153/67/14 155/65/14 173/68/14
f 173/68/14 158/184/14 157/69/14
f 157/69/14 156/182/14 153/67/14
f 44/70/15 51/88/15 52/71/16
f 143/73/4 145/185/4 154/74/4
f 166/76/7 168/186/7 54/77/7
f 45/72/16 52/71/16 159/79/17
f 43/81/12 50/187/12 49/82/12
f 42/87/18 48/188/18 51/88/15
f 61/95/19 64/98/20 57/96/20
f 64/98/20 63/100/21 58/99/21
f 63/100/21 170/189/22 164/101/22
f 62/102/23 60/190/23 56/103/23
f 46/105/7 53/191/7 61/95/19
f 135/106/7 28/192/7 15/107/7
f 119/109/24 188/193/24 180/110/24
f 73/112/8 182/25/8 78/27/9
f 19/113/7 184/116/7 177/114/7
f 184/116/7 75/19/7 69/21/7
f 181/117/7 72/120/7 179/118/7
f 72/120/7 129/16/7 71/18/7
f 178/121/6 70/194/6 80/122/6
f 127/124/25 81/195/25 65/125/25
f 183/127/5 117/196/5 35/128/5
f 75/19/7 184/116/7 179/118/7
f 86/130/4 85/197/4 199/131/4
f 99/133/7 93/198/7 88/134/7
f 198/136/26 204/199/26 196/137/26
f 90/200/13 83/141/13 98/140/13
f 205/201/13 190/139/13 83/141/13
f 191/142/27 192/202/27 195/143/28
f 200/145/29 202/156/30 203/146/30
f 96/148/31 87/203/31 206/149/31
f 201/151/32 95/204/32 208/152/32
f 189/144/28 195/143/28 210/154/33
f 202/156/30 211/205/34 212/157/34
f 82/160/14 89/206/14 92/207/14
f 92/207/14 94/158/14 82/160/14
f 12/208/35 77/209/36 67/210/35
f 121/211/4 67/210/35 120/212/4
f 68/213/4 11/214/35 176/215/4
f 120/212/4 66/216/35 68/213/4
f 66/216/35 21/217/36 11/214/35
f 67/210/35 76/218/36 66/216/35
f 12/208/35 22/219/36 77/209/36
f 121/211/4 12/208/35 67/210/35
f 68/213/4 66/216/35 11/214/35
f 120/212/4 67/210/35 66/216/35
f 66/216/35 76/218/36 21/217/36
f 67/210/35 77/209/36 76/218/36
